# xmcd
#
# Track frame offsets: 
#        150
#        22833
#        41919
#        63407
#        83964
#        106221
#        127959
#        148510
#        170641
#        186841
#        204184
#        224544
#
# Disc length: 3294 seconds
#
# Revision: 1
# Processed by: cddbd v1.5.2PL0 Copyright (c) Steve Scherf et al.
# Submitted via: ExactAudioCopy v0.99pb5
#
DISCID=a80cdc0c
DTITLE=Sam Levine - Hi Fi Sax
DYEAR=1900
DGENRE=Jazz
TTITLE0=My Heart Will Go On
TTITLE1=Somewhere Out There
TTITLE2=Killing Me Softly With His Song
TTITLE3=Tears Of Joy
TTITLE4=I Will Always Love You
TTITLE5=Un-break My Heart
TTITLE6=Looking Through Your Eyes
TTITLE7=How Do I Live
TTITLE8=Against All Odds(Take A Look At Me Now)
TTITLE9=Can You Feel The Love Tonight
TTITLE10=Enchanted
TTITLE11=Every Time I Close My Eyes
EXTD=
EXTT0=
EXTT1=
EXTT2=
EXTT3=
EXTT4=
EXTT5=
EXTT6=
EXTT7=
EXTT8=
EXTT9=
EXTT10=
EXTT11=
PLAYORDER=
